<svg xmlns="http://www.w3.org/2000/svg" x="0px" y="0px" width="50" height="50" viewBox="0,0,256,256">
<g fill="#f5f7fa" fill-rule="nonzero" stroke="none" stroke-width="1" stroke-linecap="butt" stroke-linejoin="miter" stroke-miterlimit="10" stroke-dasharray="" stroke-dashoffset="0" font-family="none" font-weight="none" font-size="none" text-anchor="none" style="mix-blend-mode: normal"><g transform="scale(16,16)"><path d="M6.5,1c-0.82422,0 -1.5,0.67578 -1.5,1.5l0.00391,6.38281l-1.44141,-1.44531c-0.58203,-0.58203 -1.54297,-0.57812 -2.125,0c-0.58203,0.58203 -0.57812,1.54297 0,2.125l3.59375,3.58984c1.18359,1.18359 2.79297,1.85156 4.46875,1.84766c2.48047,0 4.5,-2.01953 4.5,-4.5v-3c0,-0.82422 -0.67578,-1.5 -1.5,-1.5c-0.19531,0 -0.38672,0.03906 -0.55859,0.10938c-0.17578,-0.63281 -0.75391,-1.10937 -1.44141,-1.10937c-0.38281,0 -0.73437,0.15234 -1,0.39063c-0.26562,-0.23828 -0.61719,-0.39062 -1,-0.39062c-0.17578,0 -0.34375,0.03906 -0.5,0.09375v-2.59375c0,-0.82422 -0.67578,-1.5 -1.5,-1.5zM6.5,2c0.28125,0 0.5,0.21875 0.5,0.5v5.5h1v-1.5c0,-0.28125 0.21875,-0.5 0.5,-0.5c0.28125,0 0.5,0.21875 0.5,0.5v1.5h1v-1.5c0,-0.28125 0.21875,-0.5 0.5,-0.5c0.28125,0 0.5,0.21875 0.5,0.5v1.5h1v-0.5c0,-0.28125 0.21875,-0.5 0.5,-0.5c0.28125,0 0.5,0.21875 0.5,0.5v3c0,1.94141 -1.55859,3.5 -3.5,3.5c-1.41016,0.00391 -2.76562,-0.55859 -3.76562,-1.55859l-3.58594,-3.58984c-0.20312,-0.19922 -0.20312,-0.50781 0,-0.70312c0.19922,-0.20313 0.50781,-0.20313 0.70313,0l3.15234,3.14844l-0.00391,-8.79687c0,-0.28125 0.21875,-0.5 0.5,-0.5z"></path></g></g>
</svg>